<mxfile host="app.diagrams.net" agent="Mozilla/5.0 (Windows NT 10.0; Win64; x64) AppleWebKit/537.36 (KHTML, like Gecko) Chrome/130.0.0.0 Safari/537.36 Edg/130.0.0.0" version="24.8.2">
  <diagram name="Page-1" id="ltL92kF2pqCkXUYUkk79">
    <mxGraphModel grid="1" page="1" gridSize="10" guides="1" tooltips="1" connect="1" arrows="1" fold="1" pageScale="1" pageWidth="850" pageHeight="1100" math="0" shadow="0">
      <root>
        <mxCell id="0" />
        <mxCell id="1" parent="0" />
        <mxCell id="VcbLLSxq3tpEwjJNihN1-1" value="Printer manager" style="swimlane;whiteSpace=wrap" vertex="1" parent="1">
          <mxGeometry x="150" y="330" width="280" height="1012" as="geometry" />
        </mxCell>
        <mxCell id="VcbLLSxq3tpEwjJNihN1-2" value="" style="ellipse;shape=startState;fillColor=#000000;strokeColor=#ff0000;" vertex="1" parent="VcbLLSxq3tpEwjJNihN1-1">
          <mxGeometry x="100" y="40" width="30" height="30" as="geometry" />
        </mxCell>
        <mxCell id="VcbLLSxq3tpEwjJNihN1-3" value="" style="edgeStyle=elbowEdgeStyle;elbow=horizontal;verticalAlign=bottom;endArrow=open;endSize=8;strokeColor=#FF0000;endFill=1;rounded=0" edge="1" parent="VcbLLSxq3tpEwjJNihN1-1" source="VcbLLSxq3tpEwjJNihN1-2" target="VcbLLSxq3tpEwjJNihN1-4">
          <mxGeometry x="100" y="40" as="geometry">
            <mxPoint x="115.5" y="110" as="targetPoint" />
          </mxGeometry>
        </mxCell>
        <mxCell id="VcbLLSxq3tpEwjJNihN1-4" value="Log in to the&amp;nbsp;&lt;div&gt;SPSO&amp;nbsp;&lt;span style=&quot;background-color: initial;&quot;&gt;service&lt;/span&gt;&lt;/div&gt;" style="rounded=1;whiteSpace=wrap;html=1;" vertex="1" parent="VcbLLSxq3tpEwjJNihN1-1">
          <mxGeometry x="55" y="102" width="120" height="60" as="geometry" />
        </mxCell>
        <mxCell id="VcbLLSxq3tpEwjJNihN1-5" value="Select Printer&lt;div&gt;to enable/disable&lt;/div&gt;&lt;div&gt;from list&lt;/div&gt;" style="rounded=1;whiteSpace=wrap;html=1;" vertex="1" parent="VcbLLSxq3tpEwjJNihN1-1">
          <mxGeometry x="55" y="322" width="120" height="60" as="geometry" />
        </mxCell>
        <mxCell id="VcbLLSxq3tpEwjJNihN1-6" value="[not reachable]" style="edgeStyle=elbowEdgeStyle;elbow=horizontal;strokeColor=#FF0000;endArrow=open;endFill=1;rounded=0;exitX=0;exitY=0.5;exitDx=0;exitDy=0;entryX=0;entryY=0.5;entryDx=0;entryDy=0;" edge="1" parent="VcbLLSxq3tpEwjJNihN1-1" target="VcbLLSxq3tpEwjJNihN1-5">
          <mxGeometry x="-0.71" width="100" height="100" relative="1" as="geometry">
            <mxPoint x="373.25" y="512" as="sourcePoint" />
            <mxPoint x="64.50000000000011" y="132" as="targetPoint" />
            <Array as="points">
              <mxPoint x="26" y="432" />
            </Array>
            <mxPoint as="offset" />
          </mxGeometry>
        </mxCell>
        <mxCell id="VcbLLSxq3tpEwjJNihN1-7" value="[unsuccessful]" style="edgeStyle=elbowEdgeStyle;elbow=horizontal;align=left;verticalAlign=top;endArrow=open;endSize=8;strokeColor=#FF0000;endFill=1;rounded=0;" edge="1" parent="VcbLLSxq3tpEwjJNihN1-1">
          <mxGeometry x="0.2027" y="-20" relative="1" as="geometry">
            <mxPoint x="55.000000000000114" y="132" as="targetPoint" />
            <mxPoint x="373.75" y="271.9999999999999" as="sourcePoint" />
            <Array as="points">
              <mxPoint x="25.5" y="202" />
            </Array>
            <mxPoint x="1" as="offset" />
          </mxGeometry>
        </mxCell>
        <mxCell id="VcbLLSxq3tpEwjJNihN1-8" value="Get Successful&lt;div&gt;Message&lt;/div&gt;" style="rounded=1;whiteSpace=wrap;html=1;" vertex="1" parent="VcbLLSxq3tpEwjJNihN1-1">
          <mxGeometry x="55" y="872" width="120" height="60" as="geometry" />
        </mxCell>
        <mxCell id="VcbLLSxq3tpEwjJNihN1-9" value="" style="ellipse;shape=endState;fillColor=#000000;strokeColor=#ff0000" vertex="1" parent="VcbLLSxq3tpEwjJNihN1-1">
          <mxGeometry x="100" y="962" width="30" height="30" as="geometry" />
        </mxCell>
        <mxCell id="VcbLLSxq3tpEwjJNihN1-10" value="" style="endArrow=open;strokeColor=#FF0000;endFill=1;rounded=0" edge="1" parent="VcbLLSxq3tpEwjJNihN1-1" source="VcbLLSxq3tpEwjJNihN1-8" target="VcbLLSxq3tpEwjJNihN1-9">
          <mxGeometry relative="1" as="geometry">
            <mxPoint x="115.5" y="902" as="sourcePoint" />
          </mxGeometry>
        </mxCell>
        <mxCell id="VcbLLSxq3tpEwjJNihN1-11" value="" style="endArrow=open;strokeColor=#FF0000;endFill=1;rounded=0;exitX=0;exitY=0.5;exitDx=0;exitDy=0;entryX=0.5;entryY=1;entryDx=0;entryDy=0;" edge="1" parent="VcbLLSxq3tpEwjJNihN1-1" source="VcbLLSxq3tpEwjJNihN1-24">
          <mxGeometry relative="1" as="geometry">
            <mxPoint x="330.5" y="742" as="sourcePoint" />
            <mxPoint x="100" y="382" as="targetPoint" />
            <Array as="points">
              <mxPoint x="100.5" y="742" />
            </Array>
          </mxGeometry>
        </mxCell>
        <mxCell id="VcbLLSxq3tpEwjJNihN1-12" value="SPSO Service" style="swimlane;whiteSpace=wrap" vertex="1" parent="1">
          <mxGeometry x="430.5" y="330" width="282.5" height="1012" as="geometry" />
        </mxCell>
        <mxCell id="VcbLLSxq3tpEwjJNihN1-13" value="" style="rhombus;fillColor=#ffffc0;strokeColor=#ff0000;" vertex="1" parent="VcbLLSxq3tpEwjJNihN1-12">
          <mxGeometry x="93.25" y="252" width="44.5" height="40" as="geometry" />
        </mxCell>
        <mxCell id="VcbLLSxq3tpEwjJNihN1-14" value="" style="endArrow=open;strokeColor=#FF0000;endFill=1;rounded=0" edge="1" parent="VcbLLSxq3tpEwjJNihN1-12" source="VcbLLSxq3tpEwjJNihN1-15" target="VcbLLSxq3tpEwjJNihN1-13">
          <mxGeometry relative="1" as="geometry">
            <mxPoint x="130" y="245" as="sourcePoint" />
          </mxGeometry>
        </mxCell>
        <mxCell id="VcbLLSxq3tpEwjJNihN1-15" value="Authenticate&lt;div&gt;user&lt;/div&gt;" style="rounded=1;whiteSpace=wrap;html=1;" vertex="1" parent="VcbLLSxq3tpEwjJNihN1-12">
          <mxGeometry x="55.5" y="152" width="120" height="60" as="geometry" />
        </mxCell>
        <mxCell id="VcbLLSxq3tpEwjJNihN1-16" style="edgeStyle=none;curved=1;rounded=0;orthogonalLoop=1;jettySize=auto;html=1;exitX=1;exitY=0.5;exitDx=0;exitDy=0;fontSize=12;startSize=8;endSize=8;" edge="1" parent="VcbLLSxq3tpEwjJNihN1-12" source="VcbLLSxq3tpEwjJNihN1-13" target="VcbLLSxq3tpEwjJNihN1-13">
          <mxGeometry relative="1" as="geometry" />
        </mxCell>
        <mxCell id="VcbLLSxq3tpEwjJNihN1-17" style="edgeStyle=none;curved=1;rounded=0;orthogonalLoop=1;jettySize=auto;html=1;exitX=0;exitY=0.5;exitDx=0;exitDy=0;fontSize=12;startSize=8;endSize=8;" edge="1" parent="VcbLLSxq3tpEwjJNihN1-12" source="VcbLLSxq3tpEwjJNihN1-13" target="VcbLLSxq3tpEwjJNihN1-13">
          <mxGeometry relative="1" as="geometry" />
        </mxCell>
        <mxCell id="VcbLLSxq3tpEwjJNihN1-18" value="Find the printer&lt;div&gt;in the network&lt;/div&gt;" style="rounded=1;whiteSpace=wrap;html=1;" vertex="1" parent="VcbLLSxq3tpEwjJNihN1-12">
          <mxGeometry x="55.5" y="412" width="120" height="60" as="geometry" />
        </mxCell>
        <mxCell id="VcbLLSxq3tpEwjJNihN1-19" value="" style="rhombus;fillColor=#ffffc0;strokeColor=#ff0000;" vertex="1" parent="VcbLLSxq3tpEwjJNihN1-12">
          <mxGeometry x="93.25" y="492" width="44.5" height="40" as="geometry" />
        </mxCell>
        <mxCell id="VcbLLSxq3tpEwjJNihN1-20" value="" style="edgeStyle=elbowEdgeStyle;elbow=horizontal;entryX=0.5;entryY=0;strokeColor=#FF0000;endArrow=open;endFill=1;rounded=0;exitX=0.5;exitY=1;exitDx=0;exitDy=0;entryDx=0;entryDy=0;" edge="1" parent="VcbLLSxq3tpEwjJNihN1-12" source="VcbLLSxq3tpEwjJNihN1-18" target="VcbLLSxq3tpEwjJNihN1-19">
          <mxGeometry width="100" height="100" relative="1" as="geometry">
            <mxPoint x="205" y="385" as="sourcePoint" />
            <mxPoint x="255" y="428" as="targetPoint" />
            <Array as="points" />
          </mxGeometry>
        </mxCell>
        <mxCell id="VcbLLSxq3tpEwjJNihN1-21" value="Send command&lt;div&gt;to printer&lt;/div&gt;" style="rounded=1;whiteSpace=wrap;html=1;" vertex="1" parent="VcbLLSxq3tpEwjJNihN1-12">
          <mxGeometry x="55.5" y="582" width="120" height="60" as="geometry" />
        </mxCell>
        <mxCell id="VcbLLSxq3tpEwjJNihN1-22" value="" style="edgeStyle=none;strokeColor=#FF0000;endArrow=open;endFill=1;rounded=0;entryX=0.5;entryY=0;entryDx=0;entryDy=0;" edge="1" parent="VcbLLSxq3tpEwjJNihN1-12" target="VcbLLSxq3tpEwjJNihN1-33">
          <mxGeometry width="100" height="100" relative="1" as="geometry">
            <mxPoint x="175" y="612" as="sourcePoint" />
            <mxPoint x="415" y="612" as="targetPoint" />
            <Array as="points">
              <mxPoint x="413.5" y="612" />
            </Array>
          </mxGeometry>
        </mxCell>
        <mxCell id="VcbLLSxq3tpEwjJNihN1-23" value="Send Successful&lt;div&gt;Message&lt;/div&gt;" style="rounded=1;whiteSpace=wrap;html=1;" vertex="1" parent="VcbLLSxq3tpEwjJNihN1-12">
          <mxGeometry x="65" y="802" width="120" height="60" as="geometry" />
        </mxCell>
        <mxCell id="VcbLLSxq3tpEwjJNihN1-24" value="Send unsuccessful&lt;div&gt;driver message&lt;/div&gt;" style="rounded=1;whiteSpace=wrap;html=1;" vertex="1" parent="VcbLLSxq3tpEwjJNihN1-12">
          <mxGeometry x="65" y="712" width="120" height="60" as="geometry" />
        </mxCell>
        <mxCell id="VcbLLSxq3tpEwjJNihN1-25" value="" style="shape=line;strokeWidth=6;strokeColor=#ff0000;rotation=90" vertex="1" parent="VcbLLSxq3tpEwjJNihN1-12">
          <mxGeometry x="157.5" y="869.5" width="125" height="15" as="geometry" />
        </mxCell>
        <mxCell id="VcbLLSxq3tpEwjJNihN1-26" value="" style="endArrow=open;strokeColor=#FF0000;endFill=1;rounded=0;exitX=0.146;exitY=0.337;exitDx=0;exitDy=0;exitPerimeter=0;entryX=1;entryY=0.5;entryDx=0;entryDy=0;" edge="1" parent="VcbLLSxq3tpEwjJNihN1-12" source="VcbLLSxq3tpEwjJNihN1-25" target="VcbLLSxq3tpEwjJNihN1-23">
          <mxGeometry relative="1" as="geometry">
            <mxPoint x="-155.5" y="942" as="sourcePoint" />
            <mxPoint x="-155.5" y="972" as="targetPoint" />
          </mxGeometry>
        </mxCell>
        <mxCell id="VcbLLSxq3tpEwjJNihN1-27" value="" style="shape=line;strokeWidth=6;strokeColor=#ff0000;rotation=90" vertex="1" parent="VcbLLSxq3tpEwjJNihN1-12">
          <mxGeometry x="-25" y="869.5" width="125" height="15" as="geometry" />
        </mxCell>
        <mxCell id="VcbLLSxq3tpEwjJNihN1-28" value="" style="endArrow=open;strokeColor=#FF0000;endFill=1;rounded=0;entryX=0.153;entryY=0.441;entryDx=0;entryDy=0;entryPerimeter=0;" edge="1" parent="VcbLLSxq3tpEwjJNihN1-12" source="VcbLLSxq3tpEwjJNihN1-23" target="VcbLLSxq3tpEwjJNihN1-27">
          <mxGeometry relative="1" as="geometry">
            <mxPoint x="85" y="832" as="sourcePoint" />
            <mxPoint x="195" y="842" as="targetPoint" />
          </mxGeometry>
        </mxCell>
        <mxCell id="VcbLLSxq3tpEwjJNihN1-29" value="Update printers&lt;div&gt;registry on SPSO&lt;/div&gt;" style="rounded=1;whiteSpace=wrap;html=1;" vertex="1" parent="VcbLLSxq3tpEwjJNihN1-12">
          <mxGeometry x="65" y="884.5" width="120" height="60" as="geometry" />
        </mxCell>
        <mxCell id="VcbLLSxq3tpEwjJNihN1-30" value="" style="endArrow=open;strokeColor=#FF0000;endFill=1;rounded=0;exitX=0.146;exitY=0.337;exitDx=0;exitDy=0;exitPerimeter=0;entryX=1;entryY=0.5;entryDx=0;entryDy=0;fontStyle=1" edge="1" parent="VcbLLSxq3tpEwjJNihN1-12">
          <mxGeometry relative="1" as="geometry">
            <mxPoint x="222" y="915" as="sourcePoint" />
            <mxPoint x="185" y="914" as="targetPoint" />
          </mxGeometry>
        </mxCell>
        <mxCell id="VcbLLSxq3tpEwjJNihN1-31" value="" style="endArrow=open;strokeColor=#FF0000;endFill=1;rounded=0;entryX=0.795;entryY=0.364;entryDx=0;entryDy=0;entryPerimeter=0;" edge="1" parent="VcbLLSxq3tpEwjJNihN1-12" source="VcbLLSxq3tpEwjJNihN1-29" target="VcbLLSxq3tpEwjJNihN1-27">
          <mxGeometry relative="1" as="geometry">
            <mxPoint x="65" y="914.21" as="sourcePoint" />
            <mxPoint x="45" y="914" as="targetPoint" />
          </mxGeometry>
        </mxCell>
        <mxCell id="VcbLLSxq3tpEwjJNihN1-32" value="Printer" style="swimlane;whiteSpace=wrap" vertex="1" parent="1">
          <mxGeometry x="713" y="330" width="327" height="1012" as="geometry" />
        </mxCell>
        <mxCell id="VcbLLSxq3tpEwjJNihN1-33" value="enable/disable itself&lt;div&gt;from SPSO&lt;/div&gt;" style="rounded=1;whiteSpace=wrap;html=1;" vertex="1" parent="VcbLLSxq3tpEwjJNihN1-32">
          <mxGeometry x="70.5" y="638" width="120" height="60" as="geometry" />
        </mxCell>
        <mxCell id="VcbLLSxq3tpEwjJNihN1-34" value="" style="rhombus;fillColor=#ffffc0;strokeColor=#ff0000;" vertex="1" parent="VcbLLSxq3tpEwjJNihN1-32">
          <mxGeometry x="108.25" y="722" width="44.5" height="40" as="geometry" />
        </mxCell>
        <mxCell id="VcbLLSxq3tpEwjJNihN1-35" value="" style="endArrow=open;strokeColor=#FF0000;endFill=1;rounded=0" edge="1" parent="VcbLLSxq3tpEwjJNihN1-32" source="VcbLLSxq3tpEwjJNihN1-33" target="VcbLLSxq3tpEwjJNihN1-34">
          <mxGeometry relative="1" as="geometry">
            <mxPoint x="140.5" y="792" as="sourcePoint" />
            <mxPoint x="141" y="869" as="targetPoint" />
          </mxGeometry>
        </mxCell>
        <mxCell id="VcbLLSxq3tpEwjJNihN1-36" value="" style="endArrow=open;strokeColor=#FF0000;endFill=1;rounded=0;entryX=0.5;entryY=0;entryDx=0;entryDy=0;" edge="1" parent="1" source="VcbLLSxq3tpEwjJNihN1-4" target="VcbLLSxq3tpEwjJNihN1-15">
          <mxGeometry relative="1" as="geometry">
            <mxPoint x="265" y="490" as="sourcePoint" />
            <mxPoint x="265" y="662" as="targetPoint" />
            <Array as="points">
              <mxPoint x="545.5" y="462" />
            </Array>
          </mxGeometry>
        </mxCell>
        <mxCell id="VcbLLSxq3tpEwjJNihN1-37" value="[successful]" style="edgeStyle=elbowEdgeStyle;elbow=horizontal;entryX=1;entryY=0.5;strokeColor=#FF0000;endArrow=open;endFill=1;rounded=0;exitX=0.5;exitY=1;exitDx=0;exitDy=0;entryDx=0;entryDy=0;" edge="1" parent="1" source="VcbLLSxq3tpEwjJNihN1-13" target="VcbLLSxq3tpEwjJNihN1-5">
          <mxGeometry width="100" height="100" relative="1" as="geometry">
            <mxPoint x="635.5" y="715" as="sourcePoint" />
            <mxPoint x="685.5" y="758" as="targetPoint" />
            <Array as="points">
              <mxPoint x="545.5" y="652" />
            </Array>
          </mxGeometry>
        </mxCell>
        <mxCell id="VcbLLSxq3tpEwjJNihN1-38" value="" style="edgeStyle=elbowEdgeStyle;elbow=horizontal;strokeColor=#FF0000;endArrow=open;endFill=1;rounded=0;exitX=0.5;exitY=1;exitDx=0;exitDy=0;entryX=0;entryY=0.5;entryDx=0;entryDy=0;" edge="1" parent="1" source="VcbLLSxq3tpEwjJNihN1-5" target="VcbLLSxq3tpEwjJNihN1-18">
          <mxGeometry width="100" height="100" relative="1" as="geometry">
            <mxPoint x="635.5" y="715" as="sourcePoint" />
            <mxPoint x="655.5" y="782" as="targetPoint" />
            <Array as="points">
              <mxPoint x="265.5" y="742" />
            </Array>
          </mxGeometry>
        </mxCell>
        <mxCell id="VcbLLSxq3tpEwjJNihN1-39" value="[reachable]" style="edgeStyle=elbowEdgeStyle;elbow=vertical;strokeColor=#FF0000;endArrow=open;endFill=1;rounded=0;exitX=0.5;exitY=1;exitDx=0;exitDy=0;" edge="1" parent="1" source="VcbLLSxq3tpEwjJNihN1-19">
          <mxGeometry width="100" height="100" relative="1" as="geometry">
            <mxPoint x="556.5" y="812" as="sourcePoint" />
            <mxPoint x="545.5" y="912" as="targetPoint" />
            <Array as="points" />
          </mxGeometry>
        </mxCell>
        <mxCell id="VcbLLSxq3tpEwjJNihN1-40" value="[unsuccessful]" style="endArrow=open;strokeColor=#FF0000;endFill=1;rounded=0;entryX=1;entryY=0.5;entryDx=0;entryDy=0;exitX=0;exitY=0.5;exitDx=0;exitDy=0;" edge="1" parent="1" source="VcbLLSxq3tpEwjJNihN1-34" target="VcbLLSxq3tpEwjJNihN1-24">
          <mxGeometry x="-0.4821" y="-10" relative="1" as="geometry">
            <mxPoint x="235.5" y="1062" as="sourcePoint" />
            <mxPoint x="851" y="1062" as="targetPoint" />
            <Array as="points">
              <mxPoint x="615.5" y="1072" />
            </Array>
            <mxPoint as="offset" />
          </mxGeometry>
        </mxCell>
        <mxCell id="VcbLLSxq3tpEwjJNihN1-41" value="[successful]" style="endArrow=open;strokeColor=#FF0000;endFill=1;rounded=0;exitX=0.5;exitY=1;exitDx=0;exitDy=0;entryX=0.467;entryY=0.504;entryDx=0;entryDy=0;entryPerimeter=0;" edge="1" parent="1" source="VcbLLSxq3tpEwjJNihN1-34" target="VcbLLSxq3tpEwjJNihN1-25">
          <mxGeometry relative="1" as="geometry">
            <mxPoint x="765.5" y="1102" as="sourcePoint" />
            <mxPoint x="655.5" y="1202" as="targetPoint" />
            <Array as="points">
              <mxPoint x="843" y="1203" />
            </Array>
          </mxGeometry>
        </mxCell>
        <mxCell id="VcbLLSxq3tpEwjJNihN1-42" value="" style="endArrow=open;strokeColor=#FF0000;endFill=1;rounded=0;exitX=0.389;exitY=0.408;exitDx=0;exitDy=0;entryX=0.5;entryY=0;entryDx=0;entryDy=0;exitPerimeter=0;" edge="1" parent="1" source="VcbLLSxq3tpEwjJNihN1-27" target="VcbLLSxq3tpEwjJNihN1-8">
          <mxGeometry relative="1" as="geometry">
            <mxPoint x="275.5" y="1242" as="sourcePoint" />
            <mxPoint x="275" y="1302" as="targetPoint" />
            <Array as="points">
              <mxPoint x="265.5" y="1192" />
            </Array>
          </mxGeometry>
        </mxCell>
        <mxCell id="VcbLLSxq3tpEwjJNihN1-43" value="&lt;font style=&quot;font-size: 48px;&quot;&gt;ENABLE/DISABLE PRINTERS&lt;/font&gt;" style="text;html=1;align=center;verticalAlign=middle;whiteSpace=wrap;rounded=0;fontSize=16;" vertex="1" parent="1">
          <mxGeometry x="116.75" y="10" width="910" height="30" as="geometry" />
        </mxCell>
        <mxCell id="WZTzKXpHPkwGWUx394b1-2" value="&lt;p style=&quot;forced-color-adjust: none; color: rgb(0, 0, 0); font-family: Helvetica; font-size: 16px; font-style: normal; font-variant-ligatures: normal; font-variant-caps: normal; font-weight: 400; letter-spacing: normal; orphans: 2; text-align: center; text-indent: 0px; text-transform: none; widows: 2; word-spacing: 0px; -webkit-text-stroke-width: 0px; white-space: normal; background-color: rgb(251, 251, 251); text-decoration-thickness: initial; text-decoration-style: initial; text-decoration-color: initial;&quot;&gt;The&lt;span&gt;&amp;nbsp;&lt;/span&gt;&lt;b style=&quot;forced-color-adjust: none;&quot;&gt;Enable/Disable Printer&lt;/b&gt;&lt;span&gt;&amp;nbsp;&lt;/span&gt;use case describes the process of modifying a printer&#39;s operational status. The user (SPSO) selects the option to enable or disable the printer, prompting the system to display its current status. After the user makes the desired change and submits it, the system updates the printer&#39;s status in the registry and confirms the successful modification.&lt;/p&gt;&lt;p style=&quot;forced-color-adjust: none; color: rgb(0, 0, 0); font-family: Helvetica; font-size: 16px; font-style: normal; font-variant-ligatures: normal; font-variant-caps: normal; font-weight: 400; letter-spacing: normal; orphans: 2; text-align: center; text-indent: 0px; text-transform: none; widows: 2; word-spacing: 0px; -webkit-text-stroke-width: 0px; white-space: normal; background-color: rgb(251, 251, 251); text-decoration-thickness: initial; text-decoration-style: initial; text-decoration-color: initial;&quot;&gt;In an alternative scenario, if the user attempts to enable a printer that is already enabled or disable one that is already disabled, the system will display a message indicating that the printer is already in the selected status.&lt;/p&gt;&lt;p style=&quot;forced-color-adjust: none; color: rgb(0, 0, 0); font-family: Helvetica; font-size: 16px; font-style: normal; font-variant-ligatures: normal; font-variant-caps: normal; font-weight: 400; letter-spacing: normal; orphans: 2; text-align: center; text-indent: 0px; text-transform: none; widows: 2; word-spacing: 0px; -webkit-text-stroke-width: 0px; white-space: normal; background-color: rgb(251, 251, 251); text-decoration-thickness: initial; text-decoration-style: initial; text-decoration-color: initial;&quot;&gt;In case of an exception, such as when the printer is not connected, the system will be unable to complete the action and will display an error message.&lt;/p&gt;" style="text;whiteSpace=wrap;html=1;" vertex="1" parent="1">
          <mxGeometry x="291.75" y="50" width="560" height="260" as="geometry" />
        </mxCell>
      </root>
    </mxGraphModel>
  </diagram>
</mxfile>
